<?xml version="1.0" encoding="UTF-8"?><svg xmlns="http://www.w3.org/2000/svg" width="1024" height="1024" viewBox="0 0 1024 1024" shape-rendering="geometricPrecision" text-rendering="geometricPrecision"><path d="M 802.641 466.969 C 782.312 472.449, 767.799 493.197, 769.311 514.620 C 770.346 529.289, 773.563 536.509, 783.870 547.300 C 796.202 560.211, 818.944 563.780, 835.798 555.450 C 859.939 543.519, 870.370 512.371, 857.550 490.496 C 845.275 469.549, 825.116 460.911, 802.641 466.969" stroke="none" fill="#8051d7" fill-rule="evenodd"/><path d="M 0.011 31.750 L 0.022 63.500 2.721 60 C 25.981 29.831, 64.063 8.120, 104.451 2.002 L 116.500 0.177 58.250 0.089 L 0 0 0.011 31.750 M 917.562 1.552 C 954.495 6.308, 991.020 25.654, 1015.004 53.162 C 1019.003 57.748, 1022.663 61.927, 1023.137 62.450 C 1023.623 62.985, 1024 49.539, 1024 31.700 L 1024 0 965.750 0.128 C 913.179 0.244, 908.481 0.382, 917.562 1.552 M 0 992.410 L 0 1024 55.250 1023.897 C 85.638 1023.840, 108.925 1023.431, 107 1022.989 C 105.075 1022.547, 99.710 1021.430, 95.077 1020.507 C 60.964 1013.709, 24.682 991.897, 3.844 965.660 L 0 960.820 0 992.410 M 1020.305 965.281 C 1006.082 984.060, 978.140 1004.228, 953.500 1013.499 C 944.043 1017.057, 924.719 1021.996, 920.182 1022.015 C 918.157 1022.024, 915.825 1022.467, 915 1023 C 914.022 1023.632, 932.710 1023.975, 968.750 1023.985 L 1024 1024 1024 992.500 C 1024 975.175, 1023.888 961.014, 1023.750 961.031 C 1023.612 961.048, 1022.062 962.960, 1020.305 965.281" stroke="none" fill="#000001" fill-rule="evenodd"/><path d="M 480.100 143.185 C 468.546 143.823, 463.832 144.384, 447 147.126 C 389.607 156.473, 343.080 175.806, 293 211.114 C 281.786 219.020, 261.436 237.117, 250.508 248.899 C 247.753 251.869, 243.180 256.702, 240.345 259.641 C 235.792 264.359, 226.252 276.182, 222 282.377 C 221.175 283.579, 218.424 287.473, 215.887 291.031 C 203.404 308.536, 190.586 333.305, 181.490 357.500 C 175.458 373.544, 173.151 382.551, 174.681 384.081 C 176.092 385.492, 324.138 385.532, 326.773 384.122 C 327.828 383.557, 329.445 380.936, 330.365 378.297 C 333.071 370.536, 343.938 349.426, 350.818 338.566 C 381.181 290.637, 427.712 260.257, 483.500 251.939 C 493.793 250.404, 519.533 250.007, 533 251.176 C 605.948 257.505, 667.799 308.214, 696.683 385.373 C 728.264 469.735, 727.954 560.836, 695.808 642 C 653.869 747.890, 553.011 799.733, 452.817 766.904 C 402.250 750.336, 356.592 707.010, 333.470 653.654 C 331.562 649.252, 329.316 644.605, 328.478 643.326 L 326.954 641 251.477 641 L 176 641 176 643.161 C 176 650.179, 192.096 687.504, 204.539 709.342 C 252.726 793.906, 339.239 855.579, 435.478 873.970 C 485.248 883.482, 526.468 883.780, 578.317 875.006 C 712.606 852.279, 820.130 757.040, 853.871 630.933 C 856.778 620.068, 861.115 598.836, 862.456 588.904 C 863.399 581.918, 862.327 581.622, 850 585.460 C 830.038 591.675, 817.992 593.006, 803.739 590.571 C 792.212 588.602, 789.053 587.555, 776.764 581.637 C 758.480 572.831, 742.170 553.073, 736.833 533.262 C 732.533 517.301, 734.238 494.730, 740.742 481.500 C 752.521 457.541, 772.117 442.183, 798.186 436.478 C 806.431 434.674, 830.338 434.890, 836.500 436.825 C 838.150 437.343, 841.525 438.319, 844 438.995 C 846.475 439.670, 851.318 441.158, 854.761 442.300 C 863.979 445.359, 863.757 446.523, 858.917 420.500 C 847.966 361.615, 821.967 306.994, 782.737 260.453 C 773.545 249.548, 751.826 228.310, 742.898 221.496 C 739.298 218.748, 733.011 213.949, 728.926 210.832 C 707.187 194.238, 669.063 173.946, 641.500 164.298 C 609.834 153.214, 571.474 145.070, 543 143.387 C 527.892 142.494, 494.552 142.387, 480.100 143.185 M 131.920 402.010 C 118.754 404.239, 110.459 414.164, 110.807 427.276 C 111.011 435.007, 113.027 439.780, 118.162 444.693 C 129.025 455.087, 144.783 454.336, 155.050 442.936 L 159.600 437.884 244.550 437.930 C 291.761 437.955, 330.833 438.374, 332.500 438.874 C 345.418 442.744, 349.576 445.628, 365.881 462.031 C 377.759 473.981, 387.428 480.059, 401 484.108 C 408.243 486.268, 410.235 486.359, 459.062 486.751 C 500.481 487.084, 509.826 486.915, 510.737 485.817 C 512.555 483.627, 512.747 471.084, 510.979 469.966 C 509.169 468.822, 512.091 468.903, 457.500 468.479 C 416.514 468.161, 411.915 467.957, 405.944 466.191 C 394.115 462.693, 386.392 457.310, 372.760 443.062 C 363.310 433.186, 353.041 426.321, 341.901 422.432 L 333.500 419.500 247.948 419 L 162.395 418.500 155.320 411.325 C 149.590 405.514, 147.236 403.851, 142.941 402.575 C 140.024 401.709, 137.381 401.053, 137.068 401.118 C 136.756 401.182, 134.439 401.584, 131.920 402.010 M 532.200 432.200 C 530.280 434.120, 530.530 469.365, 532.476 470.980 C 533.442 471.782, 539.659 472.393, 550.503 472.751 C 573.047 473.496, 571.690 474.916, 571.404 450.872 C 571.239 436.956, 570.876 432.536, 569.844 431.883 C 567.662 430.500, 533.614 430.786, 532.200 432.200 M 587.667 431.667 C 586.705 432.628, 586.874 469.253, 587.847 470.787 C 588.440 471.722, 593.311 472.200, 605.658 472.536 C 628.621 473.162, 627.382 474.457, 626.768 450.475 C 626.417 436.750, 626.002 432.615, 624.908 431.922 C 623.289 430.897, 588.674 430.660, 587.667 431.667 M 643.200 432.200 C 641.207 434.193, 641.541 469.398, 643.571 471.429 C 644.872 472.730, 647.970 473, 661.571 473 C 683.417 473, 682 474.481, 682 451.655 C 682 436.121, 681.809 434.137, 680.171 432.655 C 677.849 430.553, 645.248 430.152, 643.200 432.200 M 129.500 490.377 C 120.498 494.623, 116.059 502.051, 116.022 512.934 C 115.982 524.697, 122.265 532.929, 134.356 536.952 C 140.097 538.863, 141.492 538.998, 144.744 537.959 C 151.276 535.873, 157.758 531.885, 160.829 528.064 L 163.798 524.368 336.552 524.246 C 493.586 524.134, 509.451 523.977, 510.903 522.521 C 512.813 520.604, 512.848 509.727, 510.951 507.441 C 509.918 506.196, 486.391 506, 338.378 506 C 174.055 506, 166.928 505.925, 165.250 504.183 C 164.287 503.183, 162.030 500.234, 160.232 497.629 C 153.894 488.440, 140.374 485.250, 129.500 490.377 M 532.200 492.200 C 531.355 493.045, 531 498.756, 531 511.500 C 531 524.244, 531.355 529.955, 532.200 530.800 C 533.610 532.210, 567.660 532.502, 569.836 531.122 C 571.795 529.881, 572.042 494.960, 570.108 492.630 C 568.378 490.545, 534.242 490.158, 532.200 492.200 M 588.200 492.200 C 587.355 493.045, 587 498.756, 587 511.500 C 587 524.244, 587.355 529.955, 588.200 530.800 C 589.987 532.587, 623.380 532.477, 625.179 530.678 C 627.116 528.741, 627.070 494.998, 625.128 492.655 C 623.381 490.549, 590.259 490.141, 588.200 492.200 M 643.200 492.200 C 642.355 493.045, 642 498.756, 642 511.500 C 642 524.244, 642.355 529.955, 643.200 530.800 C 645.187 532.787, 678.401 532.456, 680.429 530.429 C 682.760 528.098, 682.760 494.902, 680.429 492.571 C 678.401 490.544, 645.187 490.213, 643.200 492.200 M 453 545.025 C 403.305 545.542, 401.298 545.637, 395.746 547.728 C 383.213 552.448, 375.743 557.286, 364.446 568 C 352.801 579.044, 347.663 582.408, 335.764 586.777 L 328.500 589.444 247.015 589.771 C 202.198 589.951, 164.520 589.845, 163.287 589.536 C 162.054 589.226, 159.160 586.477, 156.857 583.427 C 151.788 576.713, 148.766 575.034, 139.696 573.896 C 131.405 572.855, 125.989 574.718, 119.631 580.799 C 103.571 596.160, 114.243 623.122, 136.500 623.418 C 144.671 623.527, 152.981 619.505, 157.328 613.337 C 159.037 610.912, 161.350 608.722, 162.468 608.470 C 163.585 608.217, 202.075 607.868, 248 607.695 C 337.712 607.355, 333.118 607.610, 346.510 602.231 C 355.631 598.567, 363.673 593.136, 373.646 583.906 C 385.491 572.942, 391.527 568.750, 399.500 565.951 C 405.290 563.919, 407.311 563.842, 457.341 563.760 C 500.516 563.689, 509.418 563.439, 510.591 562.266 C 512.419 560.438, 512.546 547.675, 510.750 546.260 C 508.568 544.542, 505.539 544.477, 453 545.025 M 532.200 552.200 C 530.247 554.153, 530.532 590.367, 532.513 592.011 C 535.028 594.098, 567.438 593.982, 569.547 591.878 C 571.883 589.547, 572.572 554.714, 570.326 552.469 C 568.391 550.533, 534.108 550.292, 532.200 552.200 M 588.200 552.200 C 586.463 553.937, 586.509 590.356, 588.250 591.772 C 589.309 592.632, 611.482 593.579, 620.250 593.138 C 626.040 592.847, 626.504 591.271, 626.502 571.903 C 626.500 558.464, 626.176 553.919, 625.128 552.655 C 623.381 550.549, 590.259 550.141, 588.200 552.200 M 642.667 551.667 C 641.238 553.095, 641.920 590.689, 643.396 591.914 C 644.327 592.686, 650.356 593.085, 661.485 593.111 C 683.763 593.162, 682.213 594.776, 681.811 571.941 C 681.580 558.830, 681.148 553.877, 680.128 552.651 C 678.947 551.230, 676.284 551, 661.044 551 C 651.303 551, 643.033 551.300, 642.667 551.667" stroke="none" fill="#11b27c" fill-rule="evenodd"/><path d="M 104.451 2.002 C 77.159 6.136, 53.426 15.909, 32.027 31.825 C 22.900 38.613, 9.539 51.320, 4.059 58.424 L -0 63.685 -0 512.253 L -0 960.820 3.844 965.660 C 10.572 974.131, 27.412 989.479, 37.061 995.933 C 57.659 1009.711, 76.942 1017.232, 106 1022.820 C 114.115 1024.381, 911.956 1023.772, 921.369 1022.198 C 959.960 1015.744, 994.990 995.732, 1019.646 966.055 L 1025 959.611 1025 510.805 C 1025 258.252, 1024.621 62.109, 1024.134 62.250 C 1023.657 62.387, 1019.804 58.549, 1015.571 53.720 C 994.913 30.154, 966.325 12.873, 934.258 4.566 C 916.088 -0.140, 930.399 0.011, 510.500 0.097 C 134.393 0.174, 115.953 0.260, 104.451 2.002 M 0.496 512 C 0.496 759.225, 0.610 860.362, 0.750 736.750 C 0.890 613.137, 0.890 410.862, 0.750 287.250 C 0.610 163.637, 0.496 264.775, 0.496 512 M 480.100 143.185 C 468.546 143.823, 463.832 144.384, 447 147.126 C 389.607 156.473, 343.080 175.806, 293 211.114 C 281.786 219.020, 261.436 237.117, 250.508 248.899 C 247.753 251.869, 243.180 256.702, 240.345 259.641 C 235.792 264.359, 226.252 276.182, 222 282.377 C 221.175 283.579, 218.424 287.473, 215.887 291.031 C 203.404 308.536, 190.586 333.305, 181.490 357.500 C 175.458 373.544, 173.151 382.551, 174.681 384.081 C 176.092 385.492, 324.138 385.532, 326.773 384.122 C 327.828 383.557, 329.445 380.936, 330.365 378.297 C 333.071 370.536, 343.938 349.426, 350.818 338.566 C 381.181 290.637, 427.712 260.257, 483.500 251.939 C 493.793 250.404, 519.533 250.007, 533 251.176 C 605.948 257.505, 667.799 308.214, 696.683 385.373 C 728.264 469.735, 727.954 560.836, 695.808 642 C 653.869 747.890, 553.011 799.733, 452.817 766.904 C 402.250 750.336, 356.592 707.010, 333.470 653.654 C 331.562 649.252, 329.316 644.605, 328.478 643.326 L 326.954 641 251.477 641 L 176 641 176 643.161 C 176 650.179, 192.096 687.504, 204.539 709.342 C 252.726 793.906, 339.239 855.579, 435.478 873.970 C 485.248 883.482, 526.468 883.780, 578.317 875.006 C 712.606 852.279, 820.130 757.040, 853.871 630.933 C 856.778 620.068, 861.115 598.836, 862.456 588.904 C 863.399 581.918, 862.327 581.622, 850 585.460 C 830.038 591.675, 817.992 593.006, 803.739 590.571 C 792.212 588.602, 789.053 587.555, 776.764 581.637 C 758.480 572.831, 742.170 553.073, 736.833 533.262 C 732.533 517.301, 734.238 494.730, 740.742 481.500 C 752.521 457.541, 772.117 442.183, 798.186 436.478 C 806.431 434.674, 830.338 434.890, 836.500 436.825 C 838.150 437.343, 841.525 438.319, 844 438.995 C 846.475 439.670, 851.318 441.158, 854.761 442.300 C 863.979 445.359, 863.757 446.523, 858.917 420.500 C 847.966 361.615, 821.967 306.994, 782.737 260.453 C 773.545 249.548, 751.826 228.310, 742.898 221.496 C 739.298 218.748, 733.011 213.949, 728.926 210.832 C 707.187 194.238, 669.063 173.946, 641.500 164.298 C 609.834 153.214, 571.474 145.070, 543 143.387 C 527.892 142.494, 494.552 142.387, 480.100 143.185 M 131.920 402.010 C 118.754 404.239, 110.459 414.164, 110.807 427.276 C 111.011 435.007, 113.027 439.780, 118.162 444.693 C 129.025 455.087, 144.783 454.336, 155.050 442.936 L 159.600 437.884 244.550 437.930 C 291.761 437.955, 330.833 438.374, 332.500 438.874 C 345.418 442.744, 349.576 445.628, 365.881 462.031 C 377.759 473.981, 387.428 480.059, 401 484.108 C 408.243 486.268, 410.235 486.359, 459.062 486.751 C 500.481 487.084, 509.826 486.915, 510.737 485.817 C 512.555 483.627, 512.747 471.084, 510.979 469.966 C 509.169 468.822, 512.091 468.903, 457.500 468.479 C 416.514 468.161, 411.915 467.957, 405.944 466.191 C 394.115 462.693, 386.392 457.310, 372.760 443.062 C 363.310 433.186, 353.041 426.321, 341.901 422.432 L 333.500 419.500 247.948 419 L 162.395 418.500 155.320 411.325 C 149.590 405.514, 147.236 403.851, 142.941 402.575 C 140.024 401.709, 137.381 401.053, 137.068 401.118 C 136.756 401.182, 134.439 401.584, 131.920 402.010 M 532.200 432.200 C 530.280 434.120, 530.530 469.365, 532.476 470.980 C 533.442 471.782, 539.659 472.393, 550.503 472.751 C 573.047 473.496, 571.690 474.916, 571.404 450.872 C 571.239 436.956, 570.876 432.536, 569.844 431.883 C 567.662 430.500, 533.614 430.786, 532.200 432.200 M 587.667 431.667 C 586.705 432.628, 586.874 469.253, 587.847 470.787 C 588.440 471.722, 593.311 472.200, 605.658 472.536 C 628.621 473.162, 627.382 474.457, 626.768 450.475 C 626.417 436.750, 626.002 432.615, 624.908 431.922 C 623.289 430.897, 588.674 430.660, 587.667 431.667 M 643.200 432.200 C 641.207 434.193, 641.541 469.398, 643.571 471.429 C 644.872 472.730, 647.970 473, 661.571 473 C 683.417 473, 682 474.481, 682 451.655 C 682 436.121, 681.809 434.137, 680.171 432.655 C 677.849 430.553, 645.248 430.152, 643.200 432.200 M 802.641 466.969 C 782.312 472.449, 767.799 493.197, 769.311 514.620 C 770.346 529.289, 773.563 536.509, 783.870 547.300 C 796.202 560.211, 818.944 563.780, 835.798 555.450 C 859.939 543.519, 870.370 512.371, 857.550 490.496 C 845.275 469.549, 825.116 460.911, 802.641 466.969 M 129.500 490.377 C 120.498 494.623, 116.059 502.051, 116.022 512.934 C 115.982 524.697, 122.265 532.929, 134.356 536.952 C 140.097 538.863, 141.492 538.998, 144.744 537.959 C 151.276 535.873, 157.758 531.885, 160.829 528.064 L 163.798 524.368 336.552 524.246 C 493.586 524.134, 509.451 523.977, 510.903 522.521 C 512.813 520.604, 512.848 509.727, 510.951 507.441 C 509.918 506.196, 486.391 506, 338.378 506 C 174.055 506, 166.928 505.925, 165.250 504.183 C 164.287 503.183, 162.030 500.234, 160.232 497.629 C 153.894 488.440, 140.374 485.250, 129.500 490.377 M 532.200 492.200 C 531.355 493.045, 531 498.756, 531 511.500 C 531 524.244, 531.355 529.955, 532.200 530.800 C 533.610 532.210, 567.660 532.502, 569.836 531.122 C 571.795 529.881, 572.042 494.960, 570.108 492.630 C 568.378 490.545, 534.242 490.158, 532.200 492.200 M 588.200 492.200 C 587.355 493.045, 587 498.756, 587 511.500 C 587 524.244, 587.355 529.955, 588.200 530.800 C 589.987 532.587, 623.380 532.477, 625.179 530.678 C 627.116 528.741, 627.070 494.998, 625.128 492.655 C 623.381 490.549, 590.259 490.141, 588.200 492.200 M 643.200 492.200 C 642.355 493.045, 642 498.756, 642 511.500 C 642 524.244, 642.355 529.955, 643.200 530.800 C 645.187 532.787, 678.401 532.456, 680.429 530.429 C 682.760 528.098, 682.760 494.902, 680.429 492.571 C 678.401 490.544, 645.187 490.213, 643.200 492.200 M 453 545.025 C 403.305 545.542, 401.298 545.637, 395.746 547.728 C 383.213 552.448, 375.743 557.286, 364.446 568 C 352.801 579.044, 347.663 582.408, 335.764 586.777 L 328.500 589.444 247.015 589.771 C 202.198 589.951, 164.520 589.845, 163.287 589.536 C 162.054 589.226, 159.160 586.477, 156.857 583.427 C 151.788 576.713, 148.766 575.034, 139.696 573.896 C 131.405 572.855, 125.989 574.718, 119.631 580.799 C 103.571 596.160, 114.243 623.122, 136.500 623.418 C 144.671 623.527, 152.981 619.505, 157.328 613.337 C 159.037 610.912, 161.350 608.722, 162.468 608.470 C 163.585 608.217, 202.075 607.868, 248 607.695 C 337.712 607.355, 333.118 607.610, 346.510 602.231 C 355.631 598.567, 363.673 593.136, 373.646 583.906 C 385.491 572.942, 391.527 568.750, 399.500 565.951 C 405.290 563.919, 407.311 563.842, 457.341 563.760 C 500.516 563.689, 509.418 563.439, 510.591 562.266 C 512.419 560.438, 512.546 547.675, 510.750 546.260 C 508.568 544.542, 505.539 544.477, 453 545.025 M 532.200 552.200 C 530.247 554.153, 530.532 590.367, 532.513 592.011 C 535.028 594.098, 567.438 593.982, 569.547 591.878 C 571.883 589.547, 572.572 554.714, 570.326 552.469 C 568.391 550.533, 534.108 550.292, 532.200 552.200 M 588.200 552.200 C 586.463 553.937, 586.509 590.356, 588.250 591.772 C 589.309 592.632, 611.482 593.579, 620.250 593.138 C 626.040 592.847, 626.504 591.271, 626.502 571.903 C 626.500 558.464, 626.176 553.919, 625.128 552.655 C 623.381 550.549, 590.259 550.141, 588.200 552.200 M 642.667 551.667 C 641.238 553.095, 641.920 590.689, 643.396 591.914 C 644.327 592.686, 650.356 593.085, 661.485 593.111 C 683.763 593.162, 682.213 594.776, 681.811 571.941 C 681.580 558.830, 681.148 553.877, 680.128 552.651 C 678.947 551.230, 676.284 551, 661.044 551 C 651.303 551, 643.033 551.300, 642.667 551.667" stroke="none" fill="#030a19" fill-rule="evenodd"/></svg>